<svg width="470" height="470" viewBox="0 0 470 470" fill="none" xmlns="http://www.w3.org/2000/svg">
<path d="M234.64 469.38C364.112 469.38 469.07 364.422 469.07 234.95C469.07 105.478 364.112 0.520004 234.64 0.520004C105.168 0.520004 0.209991 105.478 0.209991 234.95C0.209991 364.422 105.168 469.38 234.64 469.38Z" fill="url(#paint0_linear_1_6)"/>
<path d="M375.87 218.53C372.65 185.94 359.41 158.18 336.18 135.26C312.87 112.28 284.46 99.22 250.91 96.09V43.46C250.91 37.89 246.39 33.37 240.82 33.37H228.74C223.17 33.37 218.65 37.89 218.65 43.46V96.07C185.14 99.16 156.67 112.23 133.24 135.26C109.92 158.18 96.64 185.94 93.41 218.53H43.29C37.72 218.53 33.2 223.05 33.2 228.62V240.7C33.2 246.27 37.72 250.79 43.29 250.79H93.41C96.64 283.41 109.92 311.26 133.24 334.34C156.67 357.54 185.14 370.7 218.65 373.81V426.43C218.65 432 223.17 436.52 228.74 436.52H240.82C246.39 436.52 250.91 432 250.91 426.43V373.79C284.46 370.64 312.87 357.49 336.18 334.34C359.42 311.26 372.65 283.41 375.87 250.79H426.26C431.83 250.79 436.35 246.27 436.35 240.7V228.62C436.35 223.05 431.83 218.53 426.26 218.53H375.87ZM218.65 318.88C218.65 325.57 212.12 330.34 205.76 328.27C192.11 323.82 179.99 315.98 169.43 304.76C158.18 292.82 150.55 278.9 146.53 263.01C144.96 256.81 149.71 250.8 156.11 250.8H208.8C214.24 250.8 218.66 255.21 218.66 260.66V318.88H218.65ZM208.79 218.53H156.1C149.71 218.53 144.96 212.52 146.52 206.32C150.54 190.43 158.17 176.52 169.42 164.57C179.99 153.34 192.1 145.5 205.75 141.06C212.11 138.99 218.64 143.76 218.64 150.45V208.68C218.65 214.12 214.24 218.53 208.79 218.53ZM300.26 305.03C289.72 316.17 277.56 323.94 263.75 328.34C257.4 330.36 250.91 325.61 250.91 318.94V260.65C250.91 255.21 255.32 250.79 260.77 250.79H313.53C319.91 250.79 324.64 256.76 323.12 262.96C319.15 279.1 311.53 293.12 300.26 305.03ZM250.91 208.67V150.38C250.91 143.71 257.4 138.96 263.75 140.98C277.55 145.38 289.72 153.14 300.26 164.29C311.53 176.2 319.15 190.22 323.12 206.36C324.64 212.55 319.91 218.53 313.53 218.53H260.77C255.32 218.53 250.91 214.12 250.91 208.67Z" fill="white"/>
<defs>
<linearGradient id="paint0_linear_1_6" x1="232.486" y1="509.967" x2="236.155" y2="41.1169" gradientUnits="userSpaceOnUse">
<stop stop-color="#224194"/>
<stop offset="0.0346" stop-color="#425EA8"/>
<stop offset="0.3851" stop-color="#6264AB"/>
<stop offset="0.7696" stop-color="#7B69AD"/>
<stop offset="1" stop-color="#846BAD"/>
</linearGradient>
</defs>
</svg>
